grf
version=1
nRows=38
nColumns=19
inDegrees=yes
endheader
time	ground_force_1_vx	ground_force_1_vy	ground_force_1_vz	ground_force_1_px	ground_force_1_py	ground_force_1_pz	ground_moment_1_mx	ground_moment_1_my	ground_moment_1_mz	ground_force_2_vx	ground_force_2_vy	ground_force_2_vz	ground_force_2_px	ground_force_2_py	ground_force_2_pz	ground_moment_2_mx	ground_moment_2_my	ground_moment_2_mz
2.598000	6.408636	409.091029	-61.894600	0.177196	0.000000	-1.022344	0.000000	3.206933	0.000000	-5.859424	453.639243	64.489687	0.213458	0.000000	-1.440589	-0.000000	-3.445438	-0.000000
2.599000	6.397110	409.173450	-61.893355	0.174436	0.000000	-1.024048	0.000000	3.204941	0.000000	-5.875469	453.687560	64.496064	0.213184	0.000000	-1.441696	-0.000000	-3.443276	-0.000000
2.600000	6.383201	409.270422	-61.891103	0.176734	0.000000	-1.020642	0.000000	3.202455	0.000000	-5.890213	453.750756	64.500534	0.212119	0.000000	-1.443649	-0.000000	-3.441273	-0.000000
2.601000	6.367039	409.378927	-61.888186	0.177574	0.000000	-1.020188	0.000000	3.199507	0.000000	-5.903094	453.828190	64.503176	0.214270	0.000000	-1.438640	-0.000000	-3.439457	-0.000000
2.602000	6.348714	409.495704	-61.884902	0.178477	0.000000	-1.022855	0.000000	3.196144	0.000000	-5.913584	453.919109	64.504061	0.213198	0.000000	-1.440715	-0.000000	-3.437870	-0.000000
2.603000	6.328314	409.617538	-61.881508	0.178895	0.000000	-1.013579	0.000000	3.192422	0.000000	-5.921223	454.022514	64.503214	0.214212	0.000000	-1.439818	-0.000000	-3.436554	-0.000000
2.604000	6.305931	409.741177	-61.878229	0.179650	0.000000	-1.023448	0.000000	3.188405	0.000000	-5.925640	454.137071	64.500606	0.214174	0.000000	-1.440500	-0.000000	-3.435546	-0.000000
2.605000	6.281616	409.863259	-61.875279	0.177056	0.000000	-1.021652	0.000000	3.184161	0.000000	-5.926598	454.260901	64.496168	0.212211	0.000000	-1.439808	-0.000000	-3.434870	-0.000000
2.606000	6.255346	409.980409	-61.872841	0.180551	0.000000	-1.024204	0.000000	3.179768	0.000000	-5.924009	454.391498	64.489822	0.210893	0.000000	-1.438296	-0.000000	-3.434543	-0.000000
2.607000	6.227087	410.089591	-61.871005	0.176212	0.000000	-1.025387	0.000000	3.175301	0.000000	-5.917868	454.526115	64.481576	0.214284	0.000000	-1.441759	-0.000000	-3.434606	-0.000000
2.608000	6.196948	410.188407	-61.869725	0.178106	0.000000	-1.021301	0.000000	3.170825	0.000000	-5.908190	454.662280	64.471569	0.214107	0.000000	-1.440750	-0.000000	-3.435137	-0.000000
2.609000	6.165259	410.275262	-61.868784	0.179084	0.000000	-1.021188	0.000000	3.166390	0.000000	-5.895059	454.797713	64.459987	0.213073	0.000000	-1.444015	-0.000000	-3.436223	-0.000000
2.610000	6.132477	410.349469	-61.867875	0.178822	0.000000	-1.020334	0.000000	3.162031	0.000000	-5.878663	454.930288	64.447003	0.214586	0.000000	-1.440803	-0.000000	-3.437914	-0.000000
2.611000	6.099062	410.411024	-61.866730	0.179020	0.000000	-1.018759	0.000000	3.157774	0.000000	-5.859251	455.058658	64.432771	0.214443	0.000000	-1.443032	-0.000000	-3.440226	-0.000000
2.612000	6.065447	410.460246	-61.865182	0.175839	0.000000	-1.024049	0.000000	3.153649	0.000000	-5.837131	455.182658	64.417459	0.212947	0.000000	-1.439994	-0.000000	-3.443137	-0.000000
2.613000	6.032037	410.497580	-61.863145	0.179601	0.000000	-1.020066	0.000000	3.149695	0.000000	-5.812720	455.302859	64.401267	0.216837	0.000000	-1.443860	-0.000000	-3.446584	-0.000000
2.614000	5.999194	410.523523	-61.860591	0.178381	0.000000	-1.019467	0.000000	3.145973	0.000000	-5.786552	455.419742	64.384478	0.213990	0.000000	-1.442565	-0.000000	-3.450480	-0.000000
2.615000	5.967234	410.538725	-61.857510	0.177391	0.000000	-1.020011	0.000000	3.142553	0.000000	-5.759223	455.533238	64.367462	0.212849	0.000000	-1.440686	-0.000000	-3.454728	-0.000000
2.616000	5.936418	410.543972	-61.853870	0.180093	0.000000	-1.023346	0.000000	3.139503	0.000000	-5.731331	455.642794	64.350605	0.213292	0.000000	-1.442662	-0.000000	-3.459236	-0.000000
2.617000	5.906975	410.539737	-61.849637	0.178161	0.000000	-1.019453	0.000000	3.136880	0.000000	-5.703458	455.747511	64.334215	0.212078	0.000000	-1.445426	-0.000000	-3.463923	-0.000000
2.618000	5.879151	410.525944	-61.844869	0.180570	0.000000	-1.009376	0.000000	3.134743	0.000000	-5.676190	455.846384	64.318498	0.213937	0.000000	-1.442319	0.000000	-3.468715	-0.000000
2.619000	5.853279	410.502456	-61.839780	0.176071	0.000000	-1.022941	0.000000	3.133134	0.000000	-5.650103	455.938660	64.303551	0.213333	0.000000	-1.442754	0.000000	-3.473547	-0.000000
2.620000	5.829762	410.469697	-61.834709	0.178728	0.000000	-1.017564	0.000000	3.132041	0.000000	-5.625733	456.023755	64.289378	0.214296	0.000000	-1.439456	0.000000	-3.478363	-0.000000
2.621000	5.809019	410.428945	-61.830049	0.178800	0.000000	-1.021478	0.000000	3.131397	0.000000	-5.603552	456.100749	64.275932	0.215222	0.000000	-1.442231	0.000000	-3.483107	-0.000000
2.622000	5.791465	410.382275	-61.826190	0.178563	0.000000	-1.017955	0.000000	3.131119	0.000000	-5.583930	456.168205	64.263167	0.214501	0.000000	-1.445731	0.000000	-3.487735	-0.000000
2.623000	5.777425	410.331888	-61.823491	0.174370	0.000000	-1.025287	0.000000	3.131117	0.000000	-5.567057	456.224786	64.251007	0.212276	0.000000	-1.441841	0.000000	-3.492236	-0.000000
2.624000	5.766998	410.278966	-61.822249	0.177629	0.000000	-1.021680	0.000000	3.131287	0.000000	-5.552920	456.270055	64.239268	0.213664	0.000000	-1.440439	0.000000	-3.496646	-0.000000
2.625000	5.760074	410.223110	-61.822738	0.178783	0.000000	-1.021625	0.000000	3.131549	0.000000	-5.541421	456.304475	64.227668	0.214413	0.000000	-1.441738	0.000000	-3.501023	-0.000000
2.626000	5.756483	410.162993	-61.825231	0.180529	0.000000	-1.021867	0.000000	3.131862	0.000000	-5.532474	456.328618	64.215979	0.214323	0.000000	-1.439856	0.000000	-3.505404	-0.000000
2.627000	5.756125	410.097407	-61.829934	0.177157	0.000000	-1.014025	0.000000	3.132205	0.000000	-5.525928	456.342378	64.204120	0.215029	0.000000	-1.439817	0.000000	-3.509794	-0.000000
2.628000	5.758985	410.025911	-61.836900	0.177956	0.000000	-1.021442	0.000000	3.132561	0.000000	-5.521456	456.344792	64.192158	0.211284	0.000000	-1.445338	0.000000	-3.514167	-0.000000
2.629000	5.765035	409.949107	-61.846052	0.176567	0.000000	-1.020818	0.000000	3.132932	0.000000	-5.518576	456.334521	64.180254	0.214116	0.000000	-1.438578	0.000000	-3.518495	-0.000000
2.630000	5.774131	409.868502	-61.857221	0.179436	0.000000	-1.018469	0.000000	3.133341	0.000000	-5.516756	456.310438	64.168601	0.213983	0.000000	-1.442590	0.000000	-3.522768	-0.000000
2.631000	5.786039	409.786088	-61.870156	0.177686	0.000000	-1.023214	0.000000	3.133828	0.000000	-5.515472	456.271975	64.157353	0.213661	0.000000	-1.441611	0.000000	-3.526992	-0.000000
2.632000	5.800482	409.703853	-61.884537	0.179074	0.000000	-1.019638	0.000000	3.134437	0.000000	-5.514259	456.219319	64.146587	0.212350	0.000000	-1.445107	0.000000	-3.531168	-0.000000
2.633000	5.817166	409.623386	-61.899984	0.179936	0.000000	-1.021101	0.000000	3.135216	0.000000	-5.512730	456.153521	64.136349	0.213690	0.000000	-1.441506	0.000000	-3.535279	-0.000000
2.634000	5.835752	409.545899	-61.916134	0.179474	0.000000	-1.021175	0.000000	3.136213	0.000000	-5.510565	456.076573	64.126722	0.213937	0.000000	-1.442686	0.000000	-3.539288	-0.000000
2.635000	5.855831	409.472514	-61.932784	0.178280	0.000000	-1.017887	0.000000	3.137490	0.000000	-5.507487	455.991322	64.117812	0.213833	0.000000	-1.441270	0.000000	-3.543145	-0.000000
